<?xml version="1.0" standalone="no"?><!DOCTYPE svg PUBLIC "-//W3C//DTD SVG 1.1//EN" "http://www.w3.org/Graphics/SVG/1.1/DTD/svg11.dtd"><svg t="1664197773514" class="icon" viewBox="0 0 1024 1024" version="1.1" xmlns="http://www.w3.org/2000/svg" p-id="2361" data-darkreader-inline-fill="" xmlns:xlink="http://www.w3.org/1999/xlink" width="200" height="200"><path d="M307.793455 1024a267.077818 267.077818 0 0 1-231.400728-141.963636C21.352727 782.382545 5.806545 690.781091 31.406545 617.076364a212.503273 212.503273 0 0 1 124.718546-126.347637c33.349818-13.963636 58.181818-72.145455 58.181818-114.804363v-223.418182a95.697455 95.697455 0 0 0-16.081454-53.154909L149.701818 37.701818A23.272727 23.272727 0 0 1 167.947636 0h278.993455a23.272727 23.272727 0 0 1 18.245818 37.701818l-49.780364 63.069091a94.906182 94.906182 0 0 0-14.987636 51.642182v226.094545c0 41.704727 24.203636 98.257455 56.622546 111.522909 101.12 41.448727 146.967273 133.096727 129.140363 258.001455q-2.327273 16.733091-6.097454 33.024l-45.312-10.402909q3.281455-14.359273 5.399272-29.207273c10.286545-71.982545 1.140364-166.562909-100.724363-208.314182-52.805818-21.643636-85.504-97.093818-85.504-154.600727V152.413091a141.963636 141.963636 0 0 1 23.901091-78.964364L399.115636 46.545455h-183.156363l20.014545 25.367272a143.057455 143.057455 0 0 1 24.994909 80.500364v223.418182c0 58.461091-33.233455 135.377455-86.923636 157.742545a167.377455 167.377455 0 0 0-98.676364 98.699637c-21.201455 60.951273-6.725818 139.473455 41.704728 227.188363A222.417455 222.417455 0 0 0 309.608727 977.454545a217.250909 217.250909 0 0 0 185.669818-109.172363l39.563637 24.645818A262.330182 262.330182 0 0 1 310.050909 1024h-2.327273z m394.891636-69.818182c-96.488727 0-182.272-33.792-229.492364-90.437818l-67.374545-80.826182A23.272727 23.272727 0 0 1 423.691636 744.727273h557.986909a23.272727 23.272727 0 0 1 17.850182 38.190545l-67.351272 80.826182C884.980364 920.366545 799.197091 954.181818 702.685091 954.181818z m-229.306182-162.909091l35.537455 42.635637C546.804364 879.383273 621.044364 907.636364 702.685091 907.636364s155.927273-28.229818 193.792-73.704728L932.061091 791.272727H473.378909z m322.304 232.727273h-185.995636a23.272727 23.272727 0 0 1-23.272728-23.272727v-69.818182a23.272727 23.272727 0 0 1 23.272728-23.272727h185.995636a23.272727 23.272727 0 0 1 23.272727 23.272727v69.818182a23.272727 23.272727 0 0 1-23.272727 23.272727z m-162.746182-46.545455h139.496728v-23.272727h-139.496728v23.272727z" p-id="2362"></path></svg>